<?xml version="1.0" encoding="UTF-8" standalone="no"?>
<!-- Created with Inkscape (http://www.inkscape.org/) -->

<svg
   width="154.62743mm"
   height="195.42937mm"
   viewBox="0 0 154.62743 195.42937"
   version="1.1"
   id="svg1"
   xml:space="preserve"
   xmlns="http://www.w3.org/2000/svg"
   xmlns:svg="http://www.w3.org/2000/svg"><defs
     id="defs1" /><g
     id="layer1"
     transform="translate(-38.524033,-45.434291)"><path
       style="fill:#000000"
       d="m 113.23627,240.71125 c -2.41256,-0.28082 -4.0811,-1.02834 -5.53045,-2.47769 -2.56387,-2.56388 -2.79615,-3.67411 -2.80369,-13.40118 -0.003,-4.29286 -0.0791,-8.24733 -0.16848,-8.7877 l -0.16243,-0.9825 -19.347681,-0.0767 c -22.154152,-0.0879 -20.648398,0.0766 -23.517285,-2.56824 -1.717362,-1.58322 -2.622114,-3.13125 -3.073531,-5.25878 -0.380411,-1.79289 -0.39426,-14.91778 -0.01964,-18.61207 1.017315,-10.03213 6.112267,-18.49116 14.481906,-24.04398 3.19532,-2.11993 5.66557,-3.20198 9.84458,-4.31227 2.8729,-0.76327 3.32069,-0.8089 7.93941,-0.8089 4.61812,0 5.06678,0.0457 7.9375,0.80842 5.271751,1.40066 7.894691,2.64987 11.898491,5.66683 4.79922,3.61631 9.03918,9.68296 11.08199,15.8564 1.4277,4.31456 1.43656,4.44533 1.55,22.8789 0.0582,9.45886 0.19493,17.28782 0.30381,17.3977 0.10889,0.10988 4.06096,0.20481 8.78237,0.21096 11.12077,0.0145 15.44572,-0.53509 20.54637,-2.61081 9.44355,-3.84309 17.69025,-13.12486 20.33265,-22.88467 0.91884,-3.39379 1.31867,-8.9323 0.92048,-12.75068 -0.30632,-2.93747 -0.99209,-6.21932 -1.29884,-6.21579 -0.0915,0.001 -0.4282,1.3405 -0.74833,2.97656 -1.56657,8.00614 -3.82604,13.12016 -8.21989,18.60468 -6.03411,7.53191 -14.52246,12.83742 -23.64919,14.78153 -2.44799,0.52146 -8.43757,1.09565 -9.03552,0.8662 -0.41132,-0.15784 -0.4498,-0.95331 -0.4498,-9.29705 v -9.12444 l 0.85989,-0.13926 c 6.05941,-0.98129 7.46804,-1.26215 8.76586,-1.74772 4.39448,-1.64419 9.56018,-6.56138 11.52368,-10.96929 1.34555,-3.02066 1.63854,-4.3858 1.7901,-8.34045 0.12886,-3.3623 0.0767,-4.12167 -0.41753,-6.076 -1.89963,-7.512 -7.19154,-13.07172 -15.03606,-15.79699 l -2.06199,-0.71636 -10.71562,-0.19503 c -34.397341,-0.62605 -39.738321,-0.7539 -41.539581,-0.99435 -10.3375,-1.37994 -22.928025,-7.72903 -30.049241,-15.1531 -7.569385,-7.8913 -12.26488,-16.72544 -14.391156,-27.07564 -2.789653,-13.579338 0.123471,-28.186528 7.945719,-39.841988 3.236536,-4.82256 8.117919,-10.02131 12.420809,-13.22835 7.934739,-5.913942 17.605159,-9.604886 27.645739,-10.55165 4.61784,-0.435434 29.493411,-0.351427 31.655801,0.106904 2.16057,0.457943 3.49576,1.121813 4.79014,2.381701 2.34385,2.281407 2.5725,3.455695 2.76396,14.195255 l 0.15847,8.88895 5.31894,0.17234 c 2.92542,0.0948 11.62925,0.17653 19.34186,0.18167 12.77137,0.009 14.1452,0.0516 15.39308,0.4828 2.59256,0.89589 4.60907,2.87294 5.70633,5.59467 0.55537,1.37759 0.59136,1.90468 0.67465,9.88191 0.0701,6.70808 0.001,9.02843 -0.3376,11.37708 -1.0871,7.536318 -4.07626,13.466788 -9.49462,18.837278 -4.26893,4.23122 -8.88941,6.91746 -14.40379,8.37402 -2.07404,0.54783 -2.8867,0.60758 -8.25368,0.60679 -3.97043,-5.8e-4 -6.48184,-0.11783 -7.54062,-0.35204 -5.42762,-1.20063 -10.82799,-4.18773 -15.22945,-8.42384 -5.17422,-4.97985 -8.00053,-10.40279 -9.2594,-17.7664 -0.47137,-2.757218 -0.51428,-4.374338 -0.51428,-19.381048 v -16.37287 l -0.64324,-0.16145 c -0.35378,-0.0888 -5.20558,-0.10526 -10.781771,-0.0366 -10.91664,0.13443 -11.27812,0.17384 -15.83169,1.72593 -5.18541,1.76745 -9.46578,4.44203 -13.37813,8.35928 -5.679396,5.68651 -9.292654,13.18712 -10.175475,21.12284 -0.482032,4.33301 0.07093,9.946278 1.190264,12.082598 0.405891,0.77467 0.280106,1.11333 1.465031,-3.94436 1.401559,-5.982348 2.922974,-9.630648 5.866319,-14.067218 2.198871,-3.31441 7.968551,-9.0956 11.152051,-11.1743 6.6905,-4.3686 14.22798,-6.767 21.28091,-6.7715 l 2.447401,-0.002 v 9.12813 c 0,5.03708 -0.10372,9.12812 -0.23142,9.12812 -0.997051,0 -7.094901,1.22677 -8.557491,1.7216 -4.37611,1.48054 -7.98295,4.31967 -10.60662,8.349 -2.51928,3.869028 -3.62322,7.512348 -3.62322,11.957718 0,6.12884 2.46161,11.51664 7.35242,16.09247 3.39326,3.17471 5.64827,4.30687 10.28078,5.16159 1.99093,0.36734 5.840181,0.46327 25.626171,0.63867 25.06656,0.22222 25.72464,0.25822 31.38819,1.71736 13.7456,3.54137 25.17397,11.91573 32.68531,23.95079 4.25974,6.82519 7.23186,16.16551 7.76069,24.38917 0.43999,6.84199 -0.11746,12.16563 -1.87236,17.88103 -4.03274,13.1339 -11.17213,22.89242 -22.18411,30.32246 -4.29096,2.89521 -11.72675,6.17525 -16.55688,7.30349 -5.60508,1.30926 -6.86013,1.39135 -22.48959,1.47105 -8.14916,0.0416 -15.6501,-0.0215 -16.66875,-0.14003 z m -9.59114,-44.62369 0.99219,-0.164 -0.004,-2.80965 c -0.007,-5.0446 -1.1672,-8.09111 -4.33261,-11.37706 -3.044201,-3.16011 -6.313281,-4.4404 -10.731851,-4.20299 -3.63711,0.19542 -6.08099,1.31974 -8.95632,4.1204 -1.64883,1.60601 -2.44371,2.86924 -3.36715,5.35107 -0.62742,1.68625 -0.75308,2.48708 -0.85695,5.46126 l -0.12173,3.48526 0.75766,0.11312 c 1.21946,0.18207 25.530981,0.2027 26.620671,0.0226 z m 40.54739,-87.71644 c 2.08062,-0.44766 4.85369,-2.03726 6.6843,-3.83161 2.72808,-2.67406 3.9722,-5.999448 4.41172,-11.792018 0.171,-2.25362 0.16101,-2.31017 -0.43341,-2.45451 -0.33464,-0.0813 -6.74016,-0.11477 -14.23448,-0.0745 l -13.62604,0.0733 -0.0779,2.51354 c -0.1034,3.33609 0.33084,5.72661 1.44471,7.953098 1.63405,3.26628 4.33638,5.71913 7.84149,7.11759 2.58636,1.03189 4.84454,1.17184 7.98962,0.49514 z"
       id="path1" /></g></svg>
